<?xml version="1.0" standalone="no"?><!DOCTYPE svg PUBLIC "-//W3C//DTD SVG 1.1//EN" "http://www.w3.org/Graphics/SVG/1.1/DTD/svg11.dtd"><svg t="1522036339679" class="icon" style="" viewBox="0 0 1024 1024" version="1.1" xmlns="http://www.w3.org/2000/svg" p-id="2177" xmlns:xlink="http://www.w3.org/1999/xlink" width="64" height="64"><defs><style type="text/css"></style></defs><path d="M352 128h256a32 32 0 0 1 32 32v256a32 32 0 0 1-32 32H352a32 32 0 0 1-32-32V160a32 32 0 0 1 32-32zM504 656h416a56 56 0 1 1 0 112h-416a56 56 0 1 1 0-112z" fill="#95EAFF" p-id="2178"></path><path d="M368 208m-16 0a16 16 0 1 0 32 0 16 16 0 1 0-32 0Z" fill="#0F13AE" p-id="2179"></path><path d="M368 288m-16 0a16 16 0 1 0 32 0 16 16 0 1 0-32 0Z" fill="#0F13AE" p-id="2180"></path><path d="M368 368m-16 0a16 16 0 1 0 32 0 16 16 0 1 0-32 0Z" fill="#0F13AE" p-id="2181"></path><path d="M448 368m-16 0a16 16 0 1 0 32 0 16 16 0 1 0-32 0Z" fill="#0F13AE" p-id="2182"></path><path d="M528 208m-16 0a16 16 0 1 0 32 0 16 16 0 1 0-32 0Z" fill="#0F13AE" p-id="2183"></path><path d="M528 368m-16 0a16 16 0 1 0 32 0 16 16 0 1 0-32 0Z" fill="#0F13AE" p-id="2184"></path><path d="M624 416.144V159.856A47.92 47.92 0 0 0 576.144 112H319.856A47.92 47.92 0 0 0 272 159.856v256.288A47.92 47.92 0 0 0 319.856 464h256.288A47.92 47.92 0 0 0 624 416.144z m-320 0V159.856c0-8.704 7.168-15.856 15.856-15.856h256.288c8.704 0 15.856 7.168 15.856 15.856v256.288a15.936 15.936 0 0 1-15.856 15.856H319.856a15.936 15.936 0 0 1-15.856-15.856z" fill="#49A3FE" p-id="2185"></path><path d="M448 208m-16 0a16 16 0 1 0 32 0 16 16 0 1 0-32 0Z" fill="#49A3FE" p-id="2186"></path><path d="M448 288m-16 0a16 16 0 1 0 32 0 16 16 0 1 0-32 0Z" fill="#49A3FE" p-id="2187"></path><path d="M528 288m-16 0a16 16 0 1 0 32 0 16 16 0 1 0-32 0Z" fill="#49A3FE" p-id="2188"></path><path d="M888 640h-416a72.016 72.016 0 0 0 0 144h416a72.016 72.016 0 0 0 0-144z m0 112h-416a40.048 40.048 0 0 1-40-40c0-22.08 17.936-40 40-40h416c22.064 0 40 17.952 40 40 0 22.08-17.936 40-40 40z" fill="#49A3FE" p-id="2189"></path><path d="M672 592.656a16 16 0 0 0 16-16V95.936C688 69.68 667.152 48 641.2 48h-386.4C228.912 48 208 69.6 208 95.888v832.224C208 954.32 228.864 976 254.8 976h386.416C667.104 976 688 954.368 688 928.032v-85.024a16 16 0 0 0-32 0v85.024c0 8.896-6.832 15.968-14.8 15.968h-386.4c-7.984 0-14.8-7.088-14.8-15.888V95.888c0-8.848 6.816-15.888 14.8-15.888h386.416c7.984 0 14.784 7.072 14.784 15.936V576.64a16 16 0 0 0 16 16.016z" fill="#0F13AE" p-id="2190"></path><path d="M464 560a143.584 143.584 0 0 1 108.128 48.896 16 16 0 1 0 24.016-21.136A175.552 175.552 0 0 0 464 528c-97.2 0-176 78.8-176 176s78.8 176 176 176c38.56 0 75.28-12.448 105.488-35.104a16 16 0 0 0-19.2-25.6A143.328 143.328 0 0 1 464 848c-79.536 0-144-64.464-144-144s64.464-144 144-144z" fill="#0F13AE" p-id="2191"></path></svg>